<?xml version="1.0" encoding="UTF-8"?>
<svg id="Layer_2" data-name="Layer 2" xmlns="http://www.w3.org/2000/svg" viewBox="0 0 181.62 64.9">
  <defs>
    <style>
      .cls-1 {
        fill: #7fc2ef;
      }

      .cls-2 {
        fill: #fff;
      }

      .cls-3 {
        opacity: .2;
      }
    </style>
  </defs>
  <g id="OBJECTS">
    <g>
      <path class="cls-2" d="m72.39,64.9c.15-.22.31-.43.46-.65.22.22.44.43.66.65h108.09s.01-.08.01-.12c0-3.2-9.12-5.84-21.01-6.3.31-1.36.49-2.78.49-4.23,0-10.52-8.53-19.06-19.06-19.06-1.43,0-2.82.17-4.16.47C136.72,15.78,120.23,0,100.05,0c-17.26,0-31.81,11.54-36.39,27.33-3.65-1.99-7.84-3.11-12.29-3.11-14.24,0-25.78,11.54-25.78,25.78,0,2.96.51,5.8,1.42,8.45-.78-.02-1.57-.03-2.37-.03-13.62,0-24.65,2.85-24.65,6.37,0,.04,0,.08.01.12h72.38Z"/>
      <g class="cls-3">
        <path class="cls-1" d="m79.67,64.9c.05-.07.1-.14.15-.22.07.07.15.14.22.22h35.87s0-.03,0-.04c0-1.06-3.03-1.94-6.97-2.09.1-.45.16-.92.16-1.4,0-3.49-2.83-6.32-6.32-6.32-.47,0-.94.06-1.38.16-.38-6.6-5.85-11.84-12.55-11.84-5.73,0-10.56,3.83-12.07,9.07-1.21-.66-2.6-1.03-4.08-1.03-4.72,0-8.56,3.83-8.56,8.56,0,.98.17,1.93.47,2.8-.26,0-.52,0-.78,0-4.52,0-8.18.95-8.18,2.11,0,.01,0,.03,0,.04h24.02Z"/>
      </g>
      <g class="cls-3">
        <path class="cls-1" d="m80.16,64.9c.08-.11.16-.22.24-.33.11.11.23.22.34.33h55.4s0-.04,0-.06c0-1.64-4.68-3-10.77-3.23.16-.7.25-1.42.25-2.17,0-5.39-4.37-9.77-9.77-9.77-.73,0-1.45.09-2.13.24-.59-10.19-9.04-18.28-19.38-18.28-8.84,0-16.3,5.92-18.65,14.01-1.87-1.02-4.02-1.6-6.3-1.6-7.3,0-13.21,5.92-13.21,13.21,0,1.52.26,2.97.73,4.33-.4,0-.8-.02-1.21-.02-6.98,0-12.64,1.46-12.64,3.26,0,.02,0,.04,0,.06h37.1Z"/>
      </g>
      <g class="cls-3">
        <path class="cls-1" d="m99.25,19.04c3.17,0,3.69-4.94.49-4.94s-3.69,4.94-.49,4.94h0Z"/>
      </g>
      <g class="cls-3">
        <path class="cls-1" d="m136.44,52.4c3.17,0,3.69-4.94.49-4.94s-3.69,4.94-.49,4.94h0Z"/>
      </g>
      <g class="cls-3">
        <path class="cls-1" d="m48.44,40.84c2.38,0,2.77-3.71.37-3.71s-2.77,3.71-.37,3.71h0Z"/>
      </g>
      <g class="cls-3">
        <path class="cls-1" d="m118.46,35.92c2.38,0,2.77-3.71.37-3.71s-2.77,3.71-.37,3.71h0Z"/>
      </g>
    </g>
  </g>
</svg>