<?xml version="1.0" encoding="UTF-8"?>
<svg id="Layer_2" data-name="Layer 2" xmlns="http://www.w3.org/2000/svg" viewBox="0 0 320.3 73.63">
  <defs>
    <style>
      .cls-1 {
        fill: #7fc2ef;
      }

      .cls-2 {
        fill: #fff;
      }

      .cls-3 {
        opacity: .2;
      }
    </style>
  </defs>
  <g id="OBJECTS">
    <g>
      <path class="cls-2" d="m320.3,73.63c-4.59-6.3-18.41-10.87-34.75-10.87-5.64,0-10.97.54-15.73,1.52-3.57-8.88-12.27-15.16-22.43-15.16-3.69,0-7.19.83-10.32,2.31-3.02-9.91-12.23-17.12-23.12-17.12-9.02,0-16.88,4.95-21.04,12.27-5.43-7.33-14.14-12.08-23.96-12.08-1.33,0-2.64.1-3.93.27C160.98,14.93,143.44,0,122.42,0s-39.93,16.12-43,37.12c-3.08-1.08-6.39-1.67-9.83-1.67-15.67,0-28.51,12.1-29.71,27.46-1.68-.1-3.39-.16-5.13-.16-16.34,0-30.16,4.58-34.75,10.87h320.3Z"/>
      <g class="cls-3">
        <path class="cls-1" d="m150.77,73.63c.06-.17.12-.35.19-.52-.27.18-.55.35-.83.52h-75.11c.35-4.92,8.4-9.01,19.2-10.18-.03-.37-.06-.74-.06-1.12,0-8.15,6.61-14.76,14.76-14.76,2.3,0,4.47.54,6.41,1.48,2.27-10.4,11.52-18.19,22.6-18.19,12.15,0,22.1,9.37,23.05,21.27,1.06-.24,2.15-.38,3.28-.38,7.39,0,13.49,5.44,14.57,12.52,11.72.53,21.06,4.42,22.6,9.36h-50.68Z"/>
      </g>
      <g class="cls-3">
        <path class="cls-1" d="m137.32,73.63c.03-.09.06-.19.1-.28-.14.1-.29.19-.44.28h-40.16c.19-2.63,4.49-4.82,10.27-5.45-.02-.2-.03-.4-.03-.6,0-4.36,3.53-7.89,7.89-7.89,1.23,0,2.39.29,3.43.79,1.21-5.56,6.16-9.72,12.08-9.72,6.5,0,11.82,5.01,12.33,11.37.57-.13,1.15-.2,1.76-.2,3.95,0,7.21,2.91,7.79,6.7,6.26.28,11.26,2.36,12.08,5h-27.1Z"/>
      </g>
      <g class="cls-3">
        <path class="cls-1" d="m214.43,58.65c3.17,0,3.69-4.94.49-4.94s-3.69,4.94-.49,4.94h0Z"/>
      </g>
      <g class="cls-3">
        <path class="cls-1" d="m63.14,61.41c3.17,0,3.69-4.94.49-4.94s-3.69,4.94-.49,4.94h0Z"/>
      </g>
      <g class="cls-3">
        <path class="cls-1" d="m239.26,65.05c2.38,0,2.77-3.71.37-3.71s-2.77,3.71-.37,3.71h0Z"/>
      </g>
    </g>
  </g>
</svg>